<?xml version="1.0" standalone="no"?>
<!DOCTYPE svg PUBLIC "-//W3C//DTD SVG 20010904//EN"
 "http://www.w3.org/TR/2001/REC-SVG-20010904/DTD/svg10.dtd">
<svg version="1.0" xmlns="http://www.w3.org/2000/svg"
 width="78.000000pt" height="78.000000pt" viewBox="0 0 78.000000 78.000000"
 preserveAspectRatio="xMidYMid meet">
<metadata>
Created by potrace 1.11, written by Peter Selinger 2001-2013
</metadata>
<g transform="translate(0.000000,78.000000) scale(0.100000,-0.100000)"
fill="#000000" stroke="none">
<path d="M660 700 c-25 -25 -26 -52 -2 -73 24 -22 55 -21 75 1 22 24 21 55 -1
75 -25 22 -48 21 -72 -3z"/>
<path d="M46 694 c-47 -46 16 -117 67 -75 34 28 11 91 -33 91 -10 0 -26 -7
-34 -16z"/>
<path d="M187 655 c-34 -17 -49 -32 -81 -80 -28 -41 -33 -74 -15 -107 8 -14 8
-23 0 -31 -6 -6 -11 -28 -11 -48 0 -34 11 -48 156 -194 l155 -157 34 40 c19
22 86 91 149 154 63 63 118 126 121 139 3 14 1 37 -5 53 -5 15 -7 32 -4 37 40
65 -50 195 -140 203 -35 4 -43 -1 -96 -55 l-59 -59 -63 60 c-67 64 -90 72
-141 45z m105 -97 c44 -43 60 -52 93 -54 36 -2 46 3 90 45 68 65 78 67 120 25
46 -46 48 -72 3 -44 -56 34 -87 27 -148 -35 -30 -30 -59 -55 -64 -55 -5 0 -35
25 -67 55 -32 30 -66 55 -76 55 -10 0 -36 -9 -58 -20 -21 -11 -41 -18 -43 -15
-12 11 67 95 90 95 4 0 31 -23 60 -52z m-10 -112 c58 -56 75 -65 117 -61 24 2
47 16 86 55 40 40 57 51 73 46 52 -17 46 -30 -58 -132 -56 -55 -105 -99 -110
-99 -5 0 -55 45 -110 99 l-102 100 22 18 c12 10 26 18 30 18 4 0 27 -20 52
-44z m-1 -174 l106 -109 119 118 c66 65 122 119 127 119 26 1 -8 -42 -119
-149 l-126 -122 -25 23 c-121 112 -223 219 -223 232 0 27 27 6 141 -112z"/>
</g>
</svg>
